<mxfile host="app.diagrams.net" agent="Mozilla/5.0 (Windows NT 10.0; Win64; x64) AppleWebKit/537.36 (KHTML, like Gecko) Chrome/140.0.0.0 Safari/537.36" version="28.2.5">
  <diagram name="Page-1" id="iOODH2e5roEQ7s0Q0xCS">
    <mxGraphModel dx="1603" dy="877" grid="1" gridSize="10" guides="1" tooltips="1" connect="1" arrows="1" fold="1" page="1" pageScale="1" pageWidth="850" pageHeight="1100" math="0" shadow="0">
      <root>
        <mxCell id="0" />
        <mxCell id="1" parent="0" />
        <mxCell id="p4EIhp6FkQvizdGfs0H2-6" value="" style="edgeStyle=orthogonalEdgeStyle;rounded=0;orthogonalLoop=1;jettySize=auto;html=1;entryX=0.5;entryY=0;entryDx=0;entryDy=0;" edge="1" parent="1" source="p4EIhp6FkQvizdGfs0H2-1" target="p4EIhp6FkQvizdGfs0H2-2">
          <mxGeometry relative="1" as="geometry">
            <mxPoint x="190" y="60" as="targetPoint" />
          </mxGeometry>
        </mxCell>
        <mxCell id="p4EIhp6FkQvizdGfs0H2-15" value="xt" style="edgeLabel;html=1;align=center;verticalAlign=middle;resizable=0;points=[];" vertex="1" connectable="0" parent="p4EIhp6FkQvizdGfs0H2-6">
          <mxGeometry x="1" y="-2" relative="1" as="geometry">
            <mxPoint x="-1" y="1" as="offset" />
          </mxGeometry>
        </mxCell>
        <mxCell id="p4EIhp6FkQvizdGfs0H2-17" style="edgeStyle=orthogonalEdgeStyle;rounded=0;orthogonalLoop=1;jettySize=auto;html=1;exitX=1;exitY=0.5;exitDx=0;exitDy=0;entryX=0.5;entryY=0;entryDx=0;entryDy=0;" edge="1" parent="1" source="p4EIhp6FkQvizdGfs0H2-1" target="p4EIhp6FkQvizdGfs0H2-3">
          <mxGeometry relative="1" as="geometry">
            <mxPoint x="670" y="60" as="targetPoint" />
          </mxGeometry>
        </mxCell>
        <mxCell id="p4EIhp6FkQvizdGfs0H2-1" value="&lt;font style=&quot;color: light-dark(rgb(0, 0, 0), rgb(255, 204, 230));&quot;&gt;START&lt;/font&gt;&lt;div&gt;&lt;font style=&quot;color: light-dark(rgb(0, 0, 0), rgb(255, 204, 230));&quot;&gt;Already have an&amp;nbsp;&lt;/font&gt;&lt;/div&gt;&lt;div&gt;&lt;font style=&quot;color: light-dark(rgb(0, 0, 0), rgb(255, 204, 230));&quot;&gt;account?&lt;/font&gt;&lt;/div&gt;" style="ellipse;whiteSpace=wrap;html=1;fillColor=light-dark(#FFFFFF,#000000);" vertex="1" parent="1">
          <mxGeometry x="365" y="20" width="120" height="80" as="geometry" />
        </mxCell>
        <mxCell id="p4EIhp6FkQvizdGfs0H2-18" value="" style="edgeStyle=orthogonalEdgeStyle;rounded=0;orthogonalLoop=1;jettySize=auto;html=1;" edge="1" parent="1" source="p4EIhp6FkQvizdGfs0H2-2" target="p4EIhp6FkQvizdGfs0H2-4">
          <mxGeometry relative="1" as="geometry" />
        </mxCell>
        <mxCell id="p4EIhp6FkQvizdGfs0H2-2" value="SIGN UP" style="rounded=0;whiteSpace=wrap;html=1;" vertex="1" parent="1">
          <mxGeometry x="230" y="100" width="100" height="40" as="geometry" />
        </mxCell>
        <mxCell id="p4EIhp6FkQvizdGfs0H2-19" style="edgeStyle=orthogonalEdgeStyle;rounded=0;orthogonalLoop=1;jettySize=auto;html=1;" edge="1" parent="1" source="p4EIhp6FkQvizdGfs0H2-3">
          <mxGeometry relative="1" as="geometry">
            <mxPoint x="480" y="260" as="targetPoint" />
            <Array as="points">
              <mxPoint x="580" y="260" />
            </Array>
          </mxGeometry>
        </mxCell>
        <mxCell id="p4EIhp6FkQvizdGfs0H2-3" value="LOGIN" style="rounded=0;whiteSpace=wrap;html=1;" vertex="1" parent="1">
          <mxGeometry x="520" y="130" width="120" height="60" as="geometry" />
        </mxCell>
        <mxCell id="p4EIhp6FkQvizdGfs0H2-20" style="edgeStyle=orthogonalEdgeStyle;rounded=0;orthogonalLoop=1;jettySize=auto;html=1;exitX=0.5;exitY=1;exitDx=0;exitDy=0;" edge="1" parent="1" source="p4EIhp6FkQvizdGfs0H2-4">
          <mxGeometry relative="1" as="geometry">
            <mxPoint x="370" y="260" as="targetPoint" />
            <Array as="points">
              <mxPoint x="280" y="260" />
            </Array>
          </mxGeometry>
        </mxCell>
        <mxCell id="p4EIhp6FkQvizdGfs0H2-4" value="REGISTER" style="rounded=0;whiteSpace=wrap;html=1;" vertex="1" parent="1">
          <mxGeometry x="230" y="180" width="100" height="40" as="geometry" />
        </mxCell>
        <mxCell id="p4EIhp6FkQvizdGfs0H2-21" value="" style="edgeStyle=orthogonalEdgeStyle;rounded=0;orthogonalLoop=1;jettySize=auto;html=1;" edge="1" parent="1" source="p4EIhp6FkQvizdGfs0H2-7" target="p4EIhp6FkQvizdGfs0H2-9">
          <mxGeometry relative="1" as="geometry" />
        </mxCell>
        <mxCell id="p4EIhp6FkQvizdGfs0H2-7" value="HOME SCREEN" style="ellipse;whiteSpace=wrap;html=1;" vertex="1" parent="1">
          <mxGeometry x="373" y="220" width="105" height="70" as="geometry" />
        </mxCell>
        <mxCell id="p4EIhp6FkQvizdGfs0H2-22" value="" style="edgeStyle=orthogonalEdgeStyle;rounded=0;orthogonalLoop=1;jettySize=auto;html=1;" edge="1" parent="1" source="p4EIhp6FkQvizdGfs0H2-9" target="p4EIhp6FkQvizdGfs0H2-10">
          <mxGeometry relative="1" as="geometry" />
        </mxCell>
        <mxCell id="p4EIhp6FkQvizdGfs0H2-9" value="SEARCH ITEMS" style="rounded=0;whiteSpace=wrap;html=1;" vertex="1" parent="1">
          <mxGeometry x="365.5" y="330" width="120" height="60" as="geometry" />
        </mxCell>
        <mxCell id="p4EIhp6FkQvizdGfs0H2-23" value="" style="edgeStyle=orthogonalEdgeStyle;rounded=0;orthogonalLoop=1;jettySize=auto;html=1;" edge="1" parent="1" source="p4EIhp6FkQvizdGfs0H2-10" target="p4EIhp6FkQvizdGfs0H2-11">
          <mxGeometry relative="1" as="geometry" />
        </mxCell>
        <mxCell id="p4EIhp6FkQvizdGfs0H2-10" value="SELECT ITEMS &amp;amp;&lt;div&gt;ADD TO CART&lt;/div&gt;" style="rounded=0;whiteSpace=wrap;html=1;" vertex="1" parent="1">
          <mxGeometry x="365.5" y="430" width="120" height="60" as="geometry" />
        </mxCell>
        <mxCell id="p4EIhp6FkQvizdGfs0H2-24" style="edgeStyle=orthogonalEdgeStyle;rounded=0;orthogonalLoop=1;jettySize=auto;html=1;entryX=0.5;entryY=0;entryDx=0;entryDy=0;" edge="1" parent="1" source="p4EIhp6FkQvizdGfs0H2-11" target="p4EIhp6FkQvizdGfs0H2-12">
          <mxGeometry relative="1" as="geometry">
            <mxPoint x="730" y="570" as="targetPoint" />
          </mxGeometry>
        </mxCell>
        <mxCell id="p4EIhp6FkQvizdGfs0H2-25" style="edgeStyle=orthogonalEdgeStyle;rounded=0;orthogonalLoop=1;jettySize=auto;html=1;exitX=0.5;exitY=1;exitDx=0;exitDy=0;entryX=0.5;entryY=0;entryDx=0;entryDy=0;" edge="1" parent="1" source="p4EIhp6FkQvizdGfs0H2-11" target="p4EIhp6FkQvizdGfs0H2-13">
          <mxGeometry relative="1" as="geometry" />
        </mxCell>
        <mxCell id="p4EIhp6FkQvizdGfs0H2-11" value="ORDER" style="rounded=0;whiteSpace=wrap;html=1;" vertex="1" parent="1">
          <mxGeometry x="365" y="540" width="120" height="60" as="geometry" />
        </mxCell>
        <mxCell id="p4EIhp6FkQvizdGfs0H2-26" style="edgeStyle=orthogonalEdgeStyle;rounded=0;orthogonalLoop=1;jettySize=auto;html=1;exitX=0.5;exitY=1;exitDx=0;exitDy=0;entryX=1;entryY=0.5;entryDx=0;entryDy=0;" edge="1" parent="1" source="p4EIhp6FkQvizdGfs0H2-12" target="p4EIhp6FkQvizdGfs0H2-13">
          <mxGeometry relative="1" as="geometry">
            <mxPoint x="640" y="820" as="targetPoint" />
          </mxGeometry>
        </mxCell>
        <mxCell id="p4EIhp6FkQvizdGfs0H2-12" value="ENTER PAYMENT&lt;div&gt;DETAILS&lt;/div&gt;" style="rounded=0;whiteSpace=wrap;html=1;" vertex="1" parent="1">
          <mxGeometry x="580" y="610" width="120" height="60" as="geometry" />
        </mxCell>
        <mxCell id="p4EIhp6FkQvizdGfs0H2-27" style="edgeStyle=orthogonalEdgeStyle;rounded=0;orthogonalLoop=1;jettySize=auto;html=1;entryX=0.5;entryY=0;entryDx=0;entryDy=0;" edge="1" parent="1" source="p4EIhp6FkQvizdGfs0H2-13" target="p4EIhp6FkQvizdGfs0H2-14">
          <mxGeometry relative="1" as="geometry" />
        </mxCell>
        <mxCell id="p4EIhp6FkQvizdGfs0H2-13" value="ENTER ADRESS&lt;div&gt;DETAILS&lt;/div&gt;" style="rounded=0;whiteSpace=wrap;html=1;" vertex="1" parent="1">
          <mxGeometry x="365.5" y="730" width="120" height="60" as="geometry" />
        </mxCell>
        <mxCell id="p4EIhp6FkQvizdGfs0H2-33" style="edgeStyle=orthogonalEdgeStyle;rounded=0;orthogonalLoop=1;jettySize=auto;html=1;exitX=0.5;exitY=1;exitDx=0;exitDy=0;entryX=0.5;entryY=0;entryDx=0;entryDy=0;" edge="1" parent="1" source="p4EIhp6FkQvizdGfs0H2-14" target="p4EIhp6FkQvizdGfs0H2-32">
          <mxGeometry relative="1" as="geometry" />
        </mxCell>
        <mxCell id="p4EIhp6FkQvizdGfs0H2-14" value="CONFORM THE&lt;div&gt;ORDER&lt;/div&gt;" style="rounded=0;whiteSpace=wrap;html=1;" vertex="1" parent="1">
          <mxGeometry x="365.5" y="840" width="120" height="60" as="geometry" />
        </mxCell>
        <mxCell id="p4EIhp6FkQvizdGfs0H2-28" value="COD" style="text;html=1;align=center;verticalAlign=middle;resizable=0;points=[];autosize=1;strokeColor=none;fillColor=none;" vertex="1" parent="1">
          <mxGeometry x="335" y="648" width="50" height="30" as="geometry" />
        </mxCell>
        <mxCell id="p4EIhp6FkQvizdGfs0H2-29" value="UPI" style="text;html=1;align=center;verticalAlign=middle;resizable=0;points=[];autosize=1;strokeColor=none;fillColor=none;" vertex="1" parent="1">
          <mxGeometry x="560" y="518" width="40" height="30" as="geometry" />
        </mxCell>
        <mxCell id="p4EIhp6FkQvizdGfs0H2-30" value="YES" style="text;html=1;align=center;verticalAlign=middle;resizable=0;points=[];autosize=1;strokeColor=none;fillColor=none;" vertex="1" parent="1">
          <mxGeometry x="535" y="18" width="50" height="30" as="geometry" />
        </mxCell>
        <mxCell id="p4EIhp6FkQvizdGfs0H2-31" value="NO" style="text;html=1;align=center;verticalAlign=middle;resizable=0;points=[];autosize=1;strokeColor=none;fillColor=none;" vertex="1" parent="1">
          <mxGeometry x="260" y="18" width="40" height="30" as="geometry" />
        </mxCell>
        <mxCell id="p4EIhp6FkQvizdGfs0H2-32" value="FEEDBACK" style="rounded=0;whiteSpace=wrap;html=1;" vertex="1" parent="1">
          <mxGeometry x="365" y="950" width="120" height="60" as="geometry" />
        </mxCell>
      </root>
    </mxGraphModel>
  </diagram>
</mxfile>
